<?xml version="1.0" encoding="UTF-8"?>
<svg id="Calque_1" data-name="Calque 1" xmlns="http://www.w3.org/2000/svg" viewBox="0 0 128.75 146.34">
  <defs>
    <style>
      .cls-1 {
        fill: #353535;
      }
    </style>
  </defs>
  <path class="cls-1" d="M37.41,109.84v18.89h-11.5v-18.89c0-5.75-2.91-8.19-7.21-8.19s-7.2,2.44-7.2,8.19v18.89H0v-18.89C0,97.59,7.51,91.32,18.7,91.32s18.71,6.2,18.71,18.52ZM55.6,132.17c-4.48,0-7.82,3.03-7.82,7.09s3.34,7.08,7.82,7.08,7.83-3.03,7.82-7.09c0-4.05-3.34-7.08-7.82-7.08ZM92.93,91.8c-10.81,0-18.07,6.27-18.07,18.51v18.89h11.11v-18.89c0-5.75,2.81-8.19,6.96-8.19s6.96,2.44,6.96,8.19v18.89h11.11v-18.89c0-12.32-7.26-18.51-18.07-18.51ZM121.5,66.32c-4.15,0-7.24,3.34-7.24,7.82s3.09,7.82,7.24,7.82,7.25-3.34,7.25-7.82-3.1-7.82-7.25-7.82ZM92.57,17.01c-11.02,0-18.42,6.27-18.42,18.51v18.89h11.33v-18.89c0-5.75,2.87-8.19,7.09-8.19s7.1,2.44,7.1,8.19v18.89h11.33v-18.89c0-12.32-7.4-18.51-18.43-18.51ZM55.78,0c-4.48,0-7.83,3.02-7.83,7.08s3.35,7.08,7.83,7.08,7.82-3.02,7.82-7.08-3.34-7.08-7.82-7.08ZM61.77,67.76l.12-50.28h-12.22l-.12,50.28H17.06c-4.93,0-6.51-3.46-6.51-7.07s1.78-6.28,6.71-6.28l20.61-.48v-10.01H15.48c-4.93,0-5.64-3.45-5.64-8.21,0-3.61,1.08-6.82,6.01-6.82l22.01-.28v-11.13h-21.09C4.89,17.49.04,26.1.04,35.71c0,5.69-.2,10.77,3.68,13.74C-.16,52.41,0,57.63,0,63.23,0,72.85,5.23,80.22,17.1,80.22l20.94-.18h11.48s-.03,12.36-.03,12.36v36.45h12.22v-36.45l.03-12.38,49.06-.04v-12.22h-49.03Z"/>
</svg>